<?xml version="1.0" encoding="utf-8"?>
<!-- Generator: Adobe Illustrator 25.0.0, SVG Export Plug-In . SVG Version: 6.00 Build 0)  -->
<svg version="1.1"
	 id="svg5133" inkscape:export-filename="f:\research\drummondlab.github.io\assets\images\favicon.png" xmlns:cc="http://creativecommons.org/ns#" xmlns:dc="http://purl.org/dc/elements/1.1/" xmlns:inkscape="http://www.inkscape.org/namespaces/inkscape" xmlns:rdf="http://www.w3.org/1999/02/22-rdf-syntax-ns#" xmlns:sodipodi="http://sodipodi.sourceforge.net/DTD/sodipodi-0.dtd" xmlns:svg="http://www.w3.org/2000/svg"
	 xmlns="http://www.w3.org/2000/svg" xmlns:xlink="http://www.w3.org/1999/xlink" x="0px" y="0px" viewBox="0 0 64 64"
	 style="enable-background:new 0 0 64 64;" xml:space="preserve">
<style type="text/css">
	.st0{fill:#B54A26;}
	.st1{fill:none;stroke:#221F1F;stroke-width:0.8582;stroke-miterlimit:10;}
	.st2{fill:#E5E6E6;}
	.st3{fill:#F1F1F1;}
	.st4{fill:#458867;}
	.st5{fill:#FFEFA4;stroke:#221F1F;stroke-width:0.8582;stroke-miterlimit:10;}
	.st6{fill:#FAAD3C;}
	.st7{fill:none;stroke:#221F1F;stroke-width:0.609;stroke-miterlimit:10;}
	.st8{fill:none;stroke:#000000;stroke-width:0.5093;stroke-miterlimit:10;}
</style>
<sodipodi:namedview  bordercolor="#666666" borderopacity="1.0" id="base" inkscape:current-layer="layer1" inkscape:cx="-83.553014" inkscape:cy="71.47803" inkscape:document-units="px" inkscape:pageopacity="0.0" inkscape:pageshadow="2" inkscape:window-height="1387" inkscape:window-maximized="1" inkscape:window-width="2560" inkscape:window-x="-8" inkscape:window-y="-8" inkscape:zoom="3.959798" pagecolor="#ffffff" showgrid="false" units="px">
	</sodipodi:namedview>
<g id="MSRing_1_">
	<g>
		<path class="st0" d="M18.8,44.1c0,0-0.8,0-1-2.7s5.1-2.4,5.7-2.7c0.3-0.2,0.5-0.5,0.7-0.8s0-0.8-0.5-1c-1.2-0.2-2.9-0.7-2.9-1.7
			c0-1.4,3-1.4,3.7-2.4c0.8-1,0.7-3.7,0.8-4.2c0.2-0.5,4.7-1,6.4-1s6.3,0.5,6.4,1c0.2,0.5,0.2,3.2,0.8,4.2c0.8,1,3.7,1,3.7,2.4
			c0,1-1.9,1.4-2.9,1.7c-0.5,0-0.7,0.5-0.5,1c0.2,0.3,0.5,0.8,0.7,0.8c0.5,0.2,5.9,0,5.7,2.7s-1,2.7-1,2.7H18.8z"/>
		<path class="st1" d="M18.8,44.1c0,0-0.8,0-1-2.7s5.1-2.4,5.7-2.7c0.3-0.2,0.5-0.5,0.7-0.8s0-0.8-0.5-1c-1.2-0.2-2.9-0.7-2.9-1.7
			c0-1.4,3-1.4,3.7-2.4c0.8-1,0.7-3.7,0.8-4.2c0.2-0.5,4.7-1,6.4-1s6.3,0.5,6.4,1c0.2,0.5,0.2,3.2,0.8,4.2c0.8,1,3.7,1,3.7,2.4
			c0,1-1.9,1.4-2.9,1.7c-0.5,0-0.7,0.5-0.5,1c0.2,0.3,0.5,0.8,0.7,0.8c0.5,0.2,5.9,0,5.7,2.7s-1,2.7-1,2.7H18.8z"/>
	</g>
</g>
<g id="L-ring_1_">
	<g>
		<path class="st2" d="M31.8,15.6c-2.2,0-7.6,0.7-8.5,0.5c-0.8-0.2-0.3-1-0.8-2c-0.8-1.2-2.2-0.8-2-2.4c0.3-2.5,8.6-0.2,11.5-0.2
			c3,0,10.7-2.4,11,0.2c0.2,1.5-1,1.2-1.9,2.4c-0.5,1,0,1.7-0.8,2C39.4,16.2,33.9,15.6,31.8,15.6z"/>
		<path class="st1" d="M31.8,15.6c-2.2,0-7.6,0.7-8.5,0.5c-0.8-0.2-0.3-1-0.8-2c-0.8-1.2-2.2-0.8-2-2.4c0.3-2.5,8.6-0.2,11.5-0.2
			c3,0,10.7-2.4,11,0.2c0.2,1.5-1,1.2-1.9,2.4c-0.5,1,0,1.7-0.8,2C39.4,16.2,33.9,15.6,31.8,15.6z"/>
	</g>
</g>
<g id="P-ring_1_">
	<g>
		<path class="st3" d="M31.8,21.5c1.4,0,4.6,0,5.2,0c0.7,0,1.4,0.5,2,1.4s0.7,3.4,2,3.4c1.4,0.2,1.2-2,1.5-2.9
			c0.5-0.8,2-0.5,1.7-1.7C44,20.5,42,18.5,40,17.8c-1.7-0.5,0.5,1.7-1.5,2c-2.2,0.3-5.1,0.2-6.8,0.2s-4.7,0.2-6.9-0.2
			c-2.2-0.3,0-2.5-1.5-2c-2,0.7-4.1,2.7-4.4,3.9c-0.3,1.2,1.2,0.8,1.7,1.7c0.5,0.8,0.3,3,1.5,2.9c1.4-0.2,1.4-2.5,2-3.4
			c0.7-0.8,1.5-1.2,2-1.4C27.1,21.6,30.5,21.5,31.8,21.5z"/>
		<path class="st1" d="M31.8,21.5c1.4,0,4.6,0,5.2,0c0.7,0,1.4,0.5,2,1.4s0.7,3.4,2,3.4c1.4,0.2,1.2-2,1.5-2.9
			c0.5-0.8,2-0.5,1.7-1.7C44,20.5,42,18.5,40,17.8c-1.7-0.5,0.5,1.7-1.5,2c-2.2,0.3-5.1,0.2-6.8,0.2s-4.7,0.2-6.9-0.2
			c-2.2-0.3,0-2.5-1.5-2c-2,0.7-4.1,2.7-4.4,3.9c-0.3,1.2,1.2,0.8,1.7,1.7c0.5,0.8,0.3,3,1.5,2.9c1.4-0.2,1.4-2.5,2-3.4
			c0.7-0.8,1.5-1.2,2-1.4C27.1,21.6,30.5,21.5,31.8,21.5z"/>
	</g>
</g>
<g id="Rod_1_">
	<g>
		<path class="st4" d="M26.9,23c-0.2-4.1-0.3-15,0-16.1s3.6-0.3,4.9-0.3c1.2,0,4.6-0.3,4.9,0.5c0.3,0.8,0.2,11.8,0,16.1
			c0,2.4-1.9,8.3-4.9,8.3C28.3,31.3,27.1,25.5,26.9,23z"/>
		<path class="st1" d="M26.9,23c-0.2-4.1-0.3-15,0-16.1s3.6-0.3,4.9-0.3c1.2,0,4.6-0.3,4.9,0.5c0.3,0.8,0.2,11.8,0,16.1
			c0,2.4-1.9,8.3-4.9,8.3C28.3,31.3,27.1,25.5,26.9,23z"/>
	</g>
</g>
<g id="C-ring_3_">
	<g>
		<g>
			<path id="C-ring_32_" class="st5" d="M53.1,51.1h-1.9c0,0-4.7-1-3.4-3.4c1.2-1.9,2.9,0.5,3.6,1.7c0.2,0.2,0.3,0.3,0.7,0.3h0.5
				c0.3,0,0.5-0.2,0.5-0.5c0-1,0.2-2.5,0.8-2.4c1.4,0.3,0.8,2.4,0.3,3.4C54,50.9,53.6,51.1,53.1,51.1z M53.5,51.2h-2.4v5.4h2.4V51.2
				z M54.5,59c0.2-2-1-2.2-2.2-2.2s-2.2,1-2.2,2.2c0,1.7,1,2.2,2.2,2.2S54.5,60.7,54.5,59z"/>
			<path id="C-ring_31_" class="st5" d="M9.3,50.4c-0.5-1.2-1-3.2,0.3-3.4c0.7-0.2,0.8,1.4,0.8,2.4c0,0.3,0.2,0.5,0.5,0.5h0.5
				c0.2,0,0.5-0.2,0.7-0.3c0.7-1,2.4-3.6,3.6-1.7c1.4,2.4-3.4,3.4-3.4,3.4h-1.9C10,51.1,9.5,50.9,9.3,50.4z M10,56.6h2.4v-5.4H10
				V56.6z M11.2,61.2c1.2,0,2.2-0.5,2.2-2.2c0-1.2-1-2.2-2.2-2.2S8.8,57,9,59C9.2,60.7,10,61.2,11.2,61.2z"/>
		</g>
	</g>
</g>
<g id="Stator_units_1_">
	<g>
		<g>
			<g id="Stator_unit-right_20_">
				<g>
					<path class="st6" d="M56.5,25.4c0-0.2,0-0.3-0.2-0.5c-0.3-0.5-0.8-1.5,0.5-1.7s0.8,1,0.7,1.5c0,0.2,0.2,0.3,0.2,0.5v17.9
						c0,0.8,0.3,0.5,0.3,1.2c0,0.8-1.5,0.5-1.4,0.2C56.5,43.3,56.5,26.4,56.5,25.4z"/>
					<path class="st7" d="M56.5,25.4c0-0.2,0-0.3-0.2-0.5c-0.3-0.5-0.8-1.5,0.5-1.7s0.8,1,0.7,1.5c0,0.2,0.2,0.3,0.2,0.5v17.9
						c0,0.8,0.3,0.5,0.3,1.2c0,0.8-1.5,0.5-1.4,0.2C56.5,43.3,56.5,26.4,56.5,25.4z"/>
				</g>
				<g>
					<path class="st6" d="M56.3,25.4c0-0.2,0-0.3,0.2-0.5c0.3-0.5,0.8-1.5-0.5-1.7s-1,1-0.7,1.5c0,0.2,0.2,0.3,0.2,0.5v17.9
						c0,0.7-0.2,0.3-0.2,0.8c-0.2,0.8,1.2,1,1.2,0.7C56.3,43.6,56.5,26.4,56.3,25.4z"/>
					<path class="st7" d="M56.3,25.4c0-0.2,0-0.3,0.2-0.5c0.3-0.5,0.8-1.5-0.5-1.7s-1,1-0.7,1.5c0,0.2,0.2,0.3,0.2,0.5v17.9
						c0,0.7-0.2,0.3-0.2,0.8c-0.2,0.8,1.2,1,1.2,0.7C56.3,43.6,56.5,26.4,56.3,25.4z"/>
				</g>
				<g>
					<path class="st6" d="M56.9,46.3c-0.5,0-1.4-0.2-2-0.2c-0.5,0-1.7,0.5-1.9-0.2c-0.3-0.8,0.2-1,0.3-1.7c0.2-0.8-0.8-0.2-0.8-1.4
						s1.5-0.2,1.5-1c0-0.2,0-0.3,0-0.5c0-0.5-1.2,0.3-1.2-1.2c0-1,1.4-0.2,1.5-1c0.2-0.5,0.3-0.8,0.8-1.5c0.3-0.5,0.7-0.5,1.7-0.5
						l0,0c1,0,1.4-0.2,1.7,0.5c0.3,0.5,0.7,0.8,0.8,1.5c0.2,0.7,1.5,0,1.5,1c0,1.4-1.2,0.7-1.2,1.2c0,0.2,0,0.3,0,0.5
						c0,0.8,1.5-0.2,1.5,1s-1,0.5-0.8,1.4c0.2,0.7,0.7,0.8,0.3,1.7c-0.3,0.8-1.5,0.2-1.9,0.2C58.2,46.2,57.4,46.3,56.9,46.3
						L56.9,46.3z"/>
					<path class="st7" d="M56.9,46.3c-0.5,0-1.4-0.2-2-0.2c-0.5,0-1.7,0.5-1.9-0.2c-0.3-0.8,0.2-1,0.3-1.7c0.2-0.8-0.8-0.2-0.8-1.4
						s1.5-0.2,1.5-1c0-0.2,0-0.3,0-0.5c0-0.5-1.2,0.3-1.2-1.2c0-1,1.4-0.2,1.5-1c0.2-0.5,0.3-0.8,0.8-1.5c0.3-0.5,0.7-0.5,1.7-0.5
						l0,0c1,0,1.4-0.2,1.7,0.5c0.3,0.5,0.7,0.8,0.8,1.5c0.2,0.7,1.5,0,1.5,1c0,1.4-1.2,0.7-1.2,1.2c0,0.2,0,0.3,0,0.5
						c0,0.8,1.5-0.2,1.5,1s-1,0.5-0.8,1.4c0.2,0.7,0.7,0.8,0.3,1.7c-0.3,0.8-1.5,0.2-1.9,0.2C58.2,46.2,57.4,46.3,56.9,46.3
						L56.9,46.3z"/>
				</g>
			</g>
			<g id="Stator_unit-right_19_">
				<g>
					<path class="st6" d="M6.5,25.4c0-0.2,0-0.3-0.2-0.5c-0.3-0.5-0.8-1.5,0.5-1.7s0.8,1,0.7,1.5c0,0.2,0.2,0.3,0.2,0.5v17.9
						C7.7,44,8,43.6,8,44.3c0,0.8-1.5,0.5-1.4,0.2C6.5,43.3,6.5,26.4,6.5,25.4z"/>
					<path class="st7" d="M6.5,25.4c0-0.2,0-0.3-0.2-0.5c-0.3-0.5-0.8-1.5,0.5-1.7s0.8,1,0.7,1.5c0,0.2,0.2,0.3,0.2,0.5v17.9
						C7.7,44,8,43.6,8,44.3c0,0.8-1.5,0.5-1.4,0.2C6.5,43.3,6.5,26.4,6.5,25.4z"/>
				</g>
				<g>
					<path class="st6" d="M6.5,25.4c0-0.2,0-0.3,0.2-0.5c0.3-0.5,0.8-1.5-0.5-1.7s-1,1-0.7,1.5c0,0.2,0.2,0.3,0.2,0.5v17.9
						c-0.2,0.7-0.3,0.3-0.3,0.8c-0.2,0.8,1.2,1,1.2,0.7C6.5,43.6,6.5,26.4,6.5,25.4z"/>
					<path class="st7" d="M6.5,25.4c0-0.2,0-0.3,0.2-0.5c0.3-0.5,0.8-1.5-0.5-1.7s-1,1-0.7,1.5c0,0.2,0.2,0.3,0.2,0.5v17.9
						c-0.2,0.7-0.3,0.3-0.3,0.8c-0.2,0.8,1.2,1,1.2,0.7C6.5,43.6,6.5,26.4,6.5,25.4z"/>
				</g>
				<g>
					<path class="st6" d="M6.8,46.3c-0.5,0-1.4-0.2-2-0.2c-0.5,0-1.7,0.5-1.9-0.2c-0.3-0.8,0.2-1,0.3-1.7c0.2-0.8-0.8-0.2-0.8-1.4
						s1.5-0.2,1.5-1c0-0.2,0-0.3,0-0.5c0-0.5-1.2,0.3-1.2-1.2c0-1,1.4-0.2,1.5-1c0.2-0.5,0.3-0.8,0.8-1.5c0.3-0.5,0.7-0.5,1.7-0.5
						l0,0c1,0,1.4-0.2,1.7,0.5c0.3,0.5,0.7,0.8,0.8,1.5c0.2,0.7,1.5,0,1.5,1c0,1.4-1.2,0.7-1.2,1.2c0,0.2,0,0.3,0,0.5
						c0,0.8,1.5-0.2,1.5,1s-1,0.5-0.8,1.4c0.2,0.7,0.7,0.8,0.3,1.7c-0.3,0.8-1.5,0.2-1.9,0.2C8.2,46.2,7.3,46.3,6.8,46.3L6.8,46.3z"
						/>
					<path class="st7" d="M6.8,46.3c-0.5,0-1.4-0.2-2-0.2c-0.5,0-1.7,0.5-1.9-0.2c-0.3-0.8,0.2-1,0.3-1.7c0.2-0.8-0.8-0.2-0.8-1.4
						s1.5-0.2,1.5-1c0-0.2,0-0.3,0-0.5c0-0.5-1.2,0.3-1.2-1.2c0-1,1.4-0.2,1.5-1c0.2-0.5,0.3-0.8,0.8-1.5c0.3-0.5,0.7-0.5,1.7-0.5
						l0,0c1,0,1.4-0.2,1.7,0.5c0.3,0.5,0.7,0.8,0.8,1.5c0.2,0.7,1.5,0,1.5,1c0,1.4-1.2,0.7-1.2,1.2c0,0.2,0,0.3,0,0.5
						c0,0.8,1.5-0.2,1.5,1s-1,0.5-0.8,1.4c0.2,0.7,0.7,0.8,0.3,1.7c-0.3,0.8-1.5,0.2-1.9,0.2C8.2,46.2,7.3,46.3,6.8,46.3L6.8,46.3z"
						/>
				</g>
			</g>
		</g>
	</g>
</g>
<g>
	<path class="st8" d="M52.5,42.4c-1.4,0.2-2.4,0.5-2.4,0.8c0,0,0,0,0,0.2"/>
	<g>
		<g>
			<path class="st8" d="M56.7,44.3c3.7,0,6.6-0.5,6.6-1c0-0.3-0.8-0.7-2.2-0.8"/>
			<g>
				<path d="M55.2,44.3c0.7,0.3,1.7,0.7,2.2,1.2l-0.5-1.2l0.5-1.2C56.7,43.6,55.8,44,55.2,44.3z"/>
			</g>
		</g>
	</g>
</g>
<g>
	<path class="st8" d="M2.4,42.4C1.1,42.6,0,43,0,43.3c0,0,0,0,0,0.2"/>
	<g>
		<g>
			<path class="st8" d="M6.6,44.3c3.7,0,6.6-0.5,6.6-1c0-0.3-0.8-0.7-2.2-0.8"/>
			<g>
				<path d="M5.1,44.3c0.7,0.3,1.7,0.7,2.2,1.2L7,44.3l0.5-1.2C6.8,43.6,6,44,5.1,44.3z"/>
			</g>
		</g>
	</g>
</g>
</svg>
