<?xml version="1.0" encoding="utf-8"?>
<!-- Generator: Adobe Illustrator 25.0.0, SVG Export Plug-In . SVG Version: 6.00 Build 0)  -->
<svg version="1.1"
	 id="svg2" xmlns:cc="http://creativecommons.org/ns#" xmlns:dc="http://purl.org/dc/elements/1.1/" xmlns:inkscape="http://www.inkscape.org/namespaces/inkscape" xmlns:rdf="http://www.w3.org/1999/02/22-rdf-syntax-ns#" xmlns:sodipodi="http://sodipodi.sourceforge.net/DTD/sodipodi-0.dtd" xmlns:svg="http://www.w3.org/2000/svg"
	 xmlns="http://www.w3.org/2000/svg" xmlns:xlink="http://www.w3.org/1999/xlink" x="0px" y="0px" viewBox="0 0 100 50"
	 style="enable-background:new 0 0 100 50;" xml:space="preserve">
<style type="text/css">
	.st0{fill:none;stroke:#00FF00;stroke-width:0.1316;stroke-linecap:round;stroke-linejoin:round;stroke-miterlimit:10;}
	.st1{fill:none;stroke:#06F320;stroke-width:0.188;stroke-linecap:round;stroke-miterlimit:10;}
	.st2{fill:none;stroke:#0CE741;stroke-width:0.2444;stroke-linecap:round;stroke-miterlimit:10;}
	.st3{fill:none;stroke:#12DB61;stroke-width:0.3009;stroke-linecap:round;stroke-miterlimit:10;}
	.st4{fill:none;stroke:#17CF81;stroke-width:0.3573;stroke-linecap:round;stroke-miterlimit:10;}
	.st5{fill:none;stroke:#1DC3A1;stroke-width:0.4137;stroke-linecap:round;stroke-miterlimit:10;}
	.st6{fill:none;stroke:#23B7C2;stroke-width:0.4701;stroke-linecap:round;stroke-miterlimit:10;}
	.st7{fill:none;stroke:#29ABE2;stroke-width:0.5265;stroke-linecap:round;stroke-miterlimit:10;}
	.st8{fill:url(#SVGID_1_);}
</style>
<sodipodi:namedview  bordercolor="#666666" borderopacity="1.0" fit-margin-bottom="0" fit-margin-left="0" fit-margin-right="0" fit-margin-top="0" id="base" inkscape:current-layer="layer1" inkscape:cx="32.883356" inkscape:cy="17.057981" inkscape:document-units="px" inkscape:pageopacity="0.0" inkscape:pageshadow="2" inkscape:window-height="1387" inkscape:window-maximized="1" inkscape:window-width="2560" inkscape:window-x="-8" inkscape:window-y="-8" inkscape:zoom="22.4" pagecolor="#ffffff" showgrid="false">
	</sodipodi:namedview>
<g>
	<path class="st0" d="M0.8,15.9c7.2,13.8,9.7,4,21.7,19.4S42,49.1,53.9,37.9c10.9-10.3,15.6-7,20.2-3c7.1,6.2,15.7-14.6,21.7-26.2"
		/>
	<path class="st1" d="M0.8,15.9c6.6,13,9.5,5.8,20.6,19.8C32.9,50,40.8,48.7,52.6,37.3c10.9-10.5,15.6-9.2,20.1-5.9
		c2.1,1.5,4.2,1.2,6.5,0.4c5.3-1.9,11.6-13.4,16.6-23.1"/>
	<path class="st2" d="M0.8,15.9c6,12.2,9.1,7.7,19.6,20.2c10.9,13,19.2,12.1,31,0.5c10.9-10.8,15.5-11.4,19.9-8.9
		c2.1,1.2,4.2,1.2,6.3,1.5c5.5,0.8,12.4-9.4,18.1-20.6"/>
	<path class="st3" d="M0.8,15.9c5.3,11.4,8.9,9.6,18.5,20.6c10.3,11.8,19.2,11.3,30.8-0.4c10.9-11,15.6-13.6,19.8-11.9
		c2,0.8,4.1,1.2,6.2,2.6c5.6,3.8,13.2-5.4,19.7-18.1"/>
	<path class="st4" d="M0.8,15.9c4.7,10.6,8.6,11.4,17.4,21c9.8,10.6,19.1,10.5,30.6-1.4c10.9-11.3,15.6-15.8,19.7-14.9
		c2,0.5,4,1.2,6,3.7c5.7,6.8,14-1.3,21.2-15.7"/>
	<path class="st5" d="M0.8,15.9c4.1,9.8,8.3,13.3,16.4,21.4c9.3,9.4,19,9.7,30.4-2.4c10.8-11.6,15.6-18,19.5-17.9
		c2,0.1,3.8,1.3,5.9,4.8c5.6,9.7,14.8,2.7,22.8-13.2"/>
	<path class="st6" d="M0.8,15.9C4.3,25,8.9,31,16.1,37.7c8.7,8.1,18.9,8.9,30.2-3.4c10.8-11.8,15.6-20.3,19.4-20.8
		c2-0.3,3.7,1.3,5.8,5.9c5.6,12.7,15.6,6.7,24.3-10.7"/>
	<path class="st7" d="M0.8,15.9c6.6,19,24.4,39.9,44.2,17.8c16.6-18.5,19-33.3,24.9-16.8c5.6,15.6,16.4,10.7,25.8-8.2"/>
</g>
<linearGradient id="SVGID_1_" gradientUnits="userSpaceOnUse" x1="90.5924" y1="11.8863" x2="103.2909" y2="4.5548">
	<stop  offset="9.397479e-02" style="stop-color:#29ABE2"/>
	<stop  offset="0.1846" style="stop-color:#27B0D5"/>
	<stop  offset="0.3541" style="stop-color:#20BDB1"/>
	<stop  offset="0.5842" style="stop-color:#16D378"/>
	<stop  offset="0.863" style="stop-color:#07F029"/>
	<stop  offset="1" style="stop-color:#00FF00"/>
</linearGradient>
<path class="st8" d="M95,4.9l-3.5,6c-0.7,1.2-0.3,2.7,0.9,3.3l0,0c1.2,0.7,2.7,0.3,3.3-0.9l3.5-6c0.7-1.2,0.3-2.7-0.9-3.3l0,0
	C97.1,3.3,95.6,3.7,95,4.9z"/>
</svg>
