<?xml version="1.0" encoding="utf-8"?>
<!-- Generator: Adobe Illustrator 25.0.0, SVG Export Plug-In . SVG Version: 6.00 Build 0)  -->
<svg version="1.1"
	 id="svg2" xmlns:cc="http://creativecommons.org/ns#" xmlns:dc="http://purl.org/dc/elements/1.1/" xmlns:inkscape="http://www.inkscape.org/namespaces/inkscape" xmlns:rdf="http://www.w3.org/1999/02/22-rdf-syntax-ns#" xmlns:sodipodi="http://sodipodi.sourceforge.net/DTD/sodipodi-0.dtd" xmlns:svg="http://www.w3.org/2000/svg"
	 xmlns="http://www.w3.org/2000/svg" xmlns:xlink="http://www.w3.org/1999/xlink" x="0px" y="0px" viewBox="0 0 320 40"
	 style="enable-background:new 0 0 320 40;" xml:space="preserve">
<style type="text/css">
	.st0{fill:none;stroke:#00FF00;stroke-width:0.1182;stroke-linecap:round;stroke-linejoin:round;stroke-miterlimit:10;}
	.st1{fill:none;stroke:#06F320;stroke-width:0.1689;stroke-linecap:round;stroke-miterlimit:10;}
	.st2{fill:none;stroke:#0CE741;stroke-width:0.2195;stroke-linecap:round;stroke-miterlimit:10;}
	.st3{fill:none;stroke:#12DB61;stroke-width:0.2703;stroke-linecap:round;stroke-miterlimit:10;}
	.st4{fill:none;stroke:#17CF81;stroke-width:0.3209;stroke-linecap:round;stroke-miterlimit:10;}
	.st5{fill:none;stroke:#1DC3A1;stroke-width:0.3716;stroke-linecap:round;stroke-miterlimit:10;}
	.st6{fill:none;stroke:#23B7C2;stroke-width:0.4223;stroke-linecap:round;stroke-miterlimit:10;}
	.st7{fill:none;stroke:#29ABE2;stroke-width:0.4729;stroke-linecap:round;stroke-miterlimit:10;}
	.st8{fill:url(#SVGID_1_);}
	.st9{font-family:'Montserrat-Bold';}
	.st10{font-size:34.2877px;}
	.st11{letter-spacing:-1;}
	.st12{font-family:'Montserrat-Regular';}
	.st13{fill:url(#SVGID_2_);}
	.st14{fill:url(#SVGID_3_);}
	.st15{fill:url(#SVGID_4_);}
</style>
<sodipodi:namedview  bordercolor="#666666" borderopacity="1.0" fit-margin-bottom="0" fit-margin-left="0" fit-margin-right="0" fit-margin-top="0" id="base" inkscape:current-layer="layer1" inkscape:cx="32.883356" inkscape:cy="17.057981" inkscape:document-units="px" inkscape:pageopacity="0.0" inkscape:pageshadow="2" inkscape:window-height="1387" inkscape:window-maximized="1" inkscape:window-width="2560" inkscape:window-x="-8" inkscape:window-y="-8" inkscape:zoom="22.4" pagecolor="#ffffff" showgrid="false">
	</sodipodi:namedview>
<g>
	<path class="st0" d="M3.4,11.9c6.5,12.4,8.7,3.6,19.5,17.4s17.5,12.4,28.2,2.3c9.8-9.3,14-6.3,18.1-2.7
		c6.4,5.6,14.1-13.1,19.5-23.5"/>
	<path class="st1" d="M3.4,11.9c5.9,11.7,8.5,5.2,18.5,17.8c10.3,12.8,17.4,11.7,28,1.4c9.8-9.4,14-8.3,18.1-5.3
		c1.9,1.3,3.8,1.1,5.8,0.4c4.8-1.7,10.4-12,14.9-20.7"/>
	<path class="st2" d="M3.4,11.9c5.4,11,8.2,6.9,17.6,18.1c9.8,11.7,17.2,10.9,27.8,0.4c9.8-9.7,13.9-10.2,17.9-8
		c1.9,1.1,3.8,1.1,5.7,1.3c4.9,0.7,11.1-8.4,16.3-18.5"/>
	<path class="st3" d="M3.4,11.9c4.8,10.2,8,8.6,16.6,18.5c9.3,10.6,17.2,10.2,27.7-0.4c9.8-9.9,14-12.2,17.8-10.7
		c1.8,0.7,3.7,1.1,5.6,2.3c5,3.4,11.9-4.9,17.7-16.3"/>
	<path class="st4" d="M3.4,11.9c4.2,9.5,7.7,10.2,15.6,18.9c8.8,9.5,17.2,9.4,27.5-1.3c9.8-10.2,14-14.2,17.7-13.4
		c1.8,0.4,3.6,1.1,5.4,3.3c5.1,6.1,12.6-1.2,19-14.1"/>
	<path class="st5" d="M3.4,11.9c3.7,8.8,7.5,11.9,14.7,19.2c8.4,8.4,17.1,8.7,27.3-2.2c9.7-10.4,14-16.2,17.5-16.1
		c1.8,0.1,3.4,1.2,5.3,4.3c5,8.7,13.3,2.4,20.5-11.9"/>
	<path class="st6" d="M3.4,11.9c3.1,8.2,7.3,13.6,13.7,19.6c7.8,7.3,17,8,27.1-3.1c9.7-10.6,14-18.2,17.4-18.7
		c1.8-0.3,3.3,1.2,5.2,5.3c5,11.4,14,6,21.8-9.6"/>
	<path class="st7" d="M3.4,11.9c5.9,17.1,21.9,35.8,39.7,16C58,11.3,60.2-2,65.5,12.8c5,14,14.7,9.6,23.2-7.4"/>
</g>
<linearGradient id="SVGID_1_" gradientUnits="userSpaceOnUse" x1="84.0618" y1="33.6894" x2="95.4684" y2="40.275" gradientTransform="matrix(1 0 0 -1 0 42)">
	<stop  offset="9.397479e-02" style="stop-color:#29ABE2"/>
	<stop  offset="0.1846" style="stop-color:#27B0D5"/>
	<stop  offset="0.3541" style="stop-color:#20BDB1"/>
	<stop  offset="0.5842" style="stop-color:#16D378"/>
	<stop  offset="0.863" style="stop-color:#07F029"/>
	<stop  offset="1" style="stop-color:#00FF00"/>
</linearGradient>
<path class="st8" d="M88,2.1l-3.1,5.4c-0.6,1.1-0.3,2.4,0.8,3l0,0c1.1,0.6,2.4,0.3,3-0.8l3.1-5.4c0.6-1.1,0.3-2.4-0.8-3l0,0
	C89.9,0.6,88.6,1,88,2.1z"/>
<g>
	<text transform="matrix(1 0 0 1 101.8627 37.5761)" class="st9 st10 st11">Wadhwa</text>
	<g>
		<text transform="matrix(1 0 0 1 252.9125 37.5761)" class="st12 st10 st11">Lab</text>
		<g>
			<linearGradient id="SVGID_2_" gradientUnits="userSpaceOnUse" x1="259.4035" y1="5.8996" x2="296.6544" y2="43.1505">
				<stop  offset="0" style="stop-color:#00FF00"/>
				<stop  offset="0.1308" style="stop-color:#09ED30"/>
				<stop  offset="0.2963" style="stop-color:#12D965"/>
				<stop  offset="0.4584" style="stop-color:#1BC992"/>
				<stop  offset="0.6131" style="stop-color:#21BCB5"/>
				<stop  offset="0.7587" style="stop-color:#25B3CE"/>
				<stop  offset="0.8916" style="stop-color:#28ADDD"/>
				<stop  offset="1" style="stop-color:#29ABE2"/>
			</linearGradient>
			<path class="st13" d="M256.8,13.6h2.5v21.8h13.4v2.2h-16V13.6z"/>
			<linearGradient id="SVGID_3_" gradientUnits="userSpaceOnUse" x1="259.4035" y1="5.8996" x2="296.6544" y2="43.1505">
				<stop  offset="0" style="stop-color:#00FF00"/>
				<stop  offset="0.1308" style="stop-color:#09ED30"/>
				<stop  offset="0.2963" style="stop-color:#12D965"/>
				<stop  offset="0.4584" style="stop-color:#1BC992"/>
				<stop  offset="0.6131" style="stop-color:#21BCB5"/>
				<stop  offset="0.7587" style="stop-color:#25B3CE"/>
				<stop  offset="0.8916" style="stop-color:#28ADDD"/>
				<stop  offset="1" style="stop-color:#29ABE2"/>
			</linearGradient>
			<path class="st14" d="M288.7,26.4v11.2h-2.3v-2.8c-1.1,1.9-3.2,3-6.2,3c-4.1,0-6.6-2.1-6.6-5.2c0-2.8,1.8-5.1,7-5.1h5.7v-1.1
				c0-3.1-1.7-4.8-5.1-4.8c-2.3,0-4.5,0.8-6,2.1l-1.1-1.8c1.8-1.5,4.5-2.4,7.3-2.4C286.1,19.4,288.7,21.7,288.7,26.4z M286.3,32.2
				v-2.9h-5.7c-3.5,0-4.6,1.4-4.6,3.2c0,2.1,1.7,3.4,4.6,3.4C283.3,35.8,285.3,34.5,286.3,32.2z"/>
			<linearGradient id="SVGID_4_" gradientUnits="userSpaceOnUse" x1="259.4035" y1="5.8996" x2="296.6544" y2="43.1505">
				<stop  offset="0" style="stop-color:#00FF00"/>
				<stop  offset="0.1308" style="stop-color:#09ED30"/>
				<stop  offset="0.2963" style="stop-color:#12D965"/>
				<stop  offset="0.4584" style="stop-color:#1BC992"/>
				<stop  offset="0.6131" style="stop-color:#21BCB5"/>
				<stop  offset="0.7587" style="stop-color:#25B3CE"/>
				<stop  offset="0.8916" style="stop-color:#28ADDD"/>
				<stop  offset="1" style="stop-color:#29ABE2"/>
			</linearGradient>
			<path class="st15" d="M312.3,28.6c0,5.5-3.8,9.2-9,9.2c-3,0-5.5-1.3-7-3.7v3.6H294V12.1h2.4V23c1.5-2.3,4-3.6,6.9-3.6
				C308.4,19.4,312.3,23.1,312.3,28.6z M309.8,28.6c0-4.2-2.9-7-6.7-7c-3.8,0-6.7,2.8-6.7,7c0,4.2,2.9,7,6.7,7
				C306.9,35.6,309.8,32.8,309.8,28.6z"/>
		</g>
	</g>
</g>
</svg>
